<svg xmlns="http://www.w3.org/2000/svg" width="1200" height="700" viewBox="0 0 1200 700">
<rect width="100%" height="100%" fill="white"/>
<defs>
<marker id="arrow" markerWidth="10" markerHeight="10" refX="9" refY="3" orient="auto">
<path d="M0,0 L0,6 L9,3 z" fill="black"/>
</marker>
</defs>
<text x="600" y="45" font-family="Arial" font-size="30" font-weight="bold" text-anchor="middle">Figure 2. Baseline LLM vs GROMACS-Agent scores</text>
<line x1="110" y1="100" x2="110" y2="590" stroke="black" stroke-width="2"/>
<line x1="110" y1="590" x2="1090" y2="590" stroke="black" stroke-width="2"/>
<line x1="110" y1="590.0" x2="1090" y2="590.0" stroke="#dddddd" stroke-dasharray="5 5"/>
<text x="98" y="596.0" font-family="Arial" font-size="16" font-weight="normal" text-anchor="end">0</text>
<line x1="110" y1="492.0" x2="1090" y2="492.0" stroke="#dddddd" stroke-dasharray="5 5"/>
<text x="98" y="498.0" font-family="Arial" font-size="16" font-weight="normal" text-anchor="end">2</text>
<line x1="110" y1="394.0" x2="1090" y2="394.0" stroke="#dddddd" stroke-dasharray="5 5"/>
<text x="98" y="400.0" font-family="Arial" font-size="16" font-weight="normal" text-anchor="end">4</text>
<line x1="110" y1="296.0" x2="1090" y2="296.0" stroke="#dddddd" stroke-dasharray="5 5"/>
<text x="98" y="302.0" font-family="Arial" font-size="16" font-weight="normal" text-anchor="end">6</text>
<line x1="110" y1="198.0" x2="1090" y2="198.0" stroke="#dddddd" stroke-dasharray="5 5"/>
<text x="98" y="204.0" font-family="Arial" font-size="16" font-weight="normal" text-anchor="end">8</text>
<line x1="110" y1="100.0" x2="1090" y2="100.0" stroke="#dddddd" stroke-dasharray="5 5"/>
<text x="98" y="106.0" font-family="Arial" font-size="16" font-weight="normal" text-anchor="end">10</text>
<rect x="145.0" y="345.0" width="45" height="245.0" fill="#f2b880" stroke="black"/>
<text x="167.0" y="337.0" font-family="Arial" font-size="15" font-weight="bold" text-anchor="middle">5</text>
<rect x="200.0" y="100.0" width="45" height="490.0" fill="#8fbce6" stroke="black"/>
<text x="222.0" y="92.0" font-family="Arial" font-size="15" font-weight="bold" text-anchor="middle">10</text>
<text x="208.0" y="622" font-family="Arial" font-size="16" font-weight="bold" text-anchor="middle">O-O RDF</text>
<rect x="341.0" y="198.0" width="45" height="392.0" fill="#f2b880" stroke="black"/>
<text x="363.0" y="190.0" font-family="Arial" font-size="15" font-weight="bold" text-anchor="middle">8</text>
<rect x="396.0" y="100.0" width="45" height="490.0" fill="#8fbce6" stroke="black"/>
<text x="418.0" y="92.0" font-family="Arial" font-size="15" font-weight="bold" text-anchor="middle">10</text>
<text x="404.0" y="622" font-family="Arial" font-size="16" font-weight="bold" text-anchor="middle">Temp.</text>
<rect x="537.0" y="296.0" width="45" height="294.0" fill="#f2b880" stroke="black"/>
<text x="559.0" y="288.0" font-family="Arial" font-size="15" font-weight="bold" text-anchor="middle">6</text>
<rect x="592.0" y="100.0" width="45" height="490.0" fill="#8fbce6" stroke="black"/>
<text x="614.0" y="92.0" font-family="Arial" font-size="15" font-weight="bold" text-anchor="middle">10</text>
<text x="600.0" y="622" font-family="Arial" font-size="16" font-weight="bold" text-anchor="middle">Density</text>
<rect x="733.0" y="247.0" width="45" height="343.0" fill="#f2b880" stroke="black"/>
<text x="755.0" y="239.0" font-family="Arial" font-size="15" font-weight="bold" text-anchor="middle">7</text>
<rect x="788.0" y="100.0" width="45" height="490.0" fill="#8fbce6" stroke="black"/>
<text x="810.0" y="92.0" font-family="Arial" font-size="15" font-weight="bold" text-anchor="middle">10</text>
<text x="796.0" y="622" font-family="Arial" font-size="16" font-weight="bold" text-anchor="middle">MSD</text>
<rect x="929.0" y="247.0" width="45" height="343.0" fill="#f2b880" stroke="black"/>
<text x="951.0" y="239.0" font-family="Arial" font-size="15" font-weight="bold" text-anchor="middle">7</text>
<rect x="984.0" y="100.0" width="45" height="490.0" fill="#8fbce6" stroke="black"/>
<text x="1006.0" y="92.0" font-family="Arial" font-size="15" font-weight="bold" text-anchor="middle">10</text>
<text x="992.0" y="622" font-family="Arial" font-size="16" font-weight="bold" text-anchor="middle">PBC</text>
<rect x="760" y="70" width="25" height="18" fill="#f2b880" stroke="black"/>
<text x="795" y="86" font-family="Arial" font-size="18" font-weight="normal" text-anchor="start">Baseline LLM</text>
<rect x="940" y="70" width="25" height="18" fill="#8fbce6" stroke="black"/>
<text x="975" y="86" font-family="Arial" font-size="18" font-weight="normal" text-anchor="start">GROMACS-Agent</text>

</svg>
